<svg width="244" height="55" viewBox="0 0 244 55" fill="none" xmlns="http://www.w3.org/2000/svg">
<g clip-path="url(#clip0_65_2651)">
<path d="M141.62 27.4388C140.873 25.5811 139.67 23.9365 138.12 22.6534C135.185 20.4154 131.583 19.2016 127.877 19.2016C124.171 19.2016 120.57 20.4154 117.635 22.6534C117.458 22.8143 117.305 22.9786 117.138 23.143C116.97 22.9786 116.815 22.8143 116.633 22.6534C113.774 20.2914 110.132 19.0616 106.409 19.2016C102.676 19.0589 99.0214 20.2886 96.1506 22.6534C94.6199 23.9396 93.4397 25.5849 92.7181 27.4388C91.9877 29.7195 91.6405 32.1033 91.6902 34.4951V54.1777H94.2387C94.9487 54.1788 95.652 54.0414 96.3083 53.7736C96.9647 53.5057 97.5612 53.1126 98.0639 52.6167C98.5665 52.1207 98.9655 51.5317 99.2379 50.8833C99.5103 50.2348 99.6509 49.5396 99.6515 48.8374V34.6642C99.6515 29.0312 101.904 26.2159 106.409 26.2183C110.916 26.2183 113.168 29.0336 113.166 34.6642V54.1777H115.714C116.425 54.1789 117.128 54.0416 117.784 53.7738C118.441 53.5061 119.038 53.1129 119.54 52.617C120.043 52.1211 120.442 51.532 120.715 50.8835C120.987 50.235 121.128 49.5397 121.128 48.8374V47.2065H121.137V34.6642C121.137 29.0312 123.389 26.2159 127.893 26.2183C132.397 26.2183 134.65 29.0336 134.65 34.6642V54.1777H137.2C137.91 54.1788 138.613 54.0414 139.269 53.7736C139.926 53.5057 140.522 53.1126 141.025 52.6167C141.527 52.1207 141.926 51.5317 142.199 50.8833C142.471 50.2348 142.612 49.5396 142.612 48.8374V34.4948C142.725 32.1022 142.389 29.7101 141.62 27.4388Z" fill="#00A7E0"/>
<path d="M83.4609 19.2006C82.7509 19.1994 82.0476 19.3366 81.3912 19.6043C80.7348 19.872 80.1381 20.265 79.6354 20.7608C79.1326 21.2566 78.7335 21.8456 78.461 22.494C78.1884 23.1424 78.0477 23.8375 78.0469 24.5397V38.713C78.0469 44.3459 75.7947 47.1612 71.2902 47.1589C66.7862 47.1589 64.5336 44.3436 64.5324 38.713V34.4953C64.6462 32.1025 64.3104 29.7096 63.5423 27.4378C62.7934 25.5806 61.5901 23.9362 60.0402 22.6524C57.1804 20.2911 53.5374 19.0613 49.8145 19.2006C46.0808 19.0582 42.426 20.2878 39.5546 22.6524C38.0259 23.9402 36.8464 25.585 36.1233 27.4378C35.3935 29.7191 35.0463 32.1031 35.0954 34.4953V54.1767H37.9715C39.3191 54.1784 40.6121 53.6505 41.5662 52.7094C42.5203 51.7682 43.0573 50.4908 43.059 49.1581V34.6643C43.059 29.0298 45.3109 26.2145 49.8145 26.2184C54.3091 26.2184 56.5613 29.0193 56.5711 34.6212V38.882C56.5202 41.2743 56.8674 43.6586 57.599 45.9395C58.32 47.7927 59.4994 49.4376 61.0292 50.7237C63.9002 53.0898 67.5558 54.32 71.2902 54.1767C75.0132 54.3153 78.6561 53.0852 81.5159 50.7237C83.0655 49.4405 84.2681 47.7965 85.0157 45.9395C85.7841 43.6677 86.121 41.275 86.0094 38.882V19.2006H83.4609Z" fill="#19468D"/>
<path d="M25.8804 19.1758C25.3027 19.1752 24.7304 19.2871 24.1965 19.5053C23.6625 19.7234 23.1772 20.0435 22.7683 20.4472C22.3595 20.8509 22.0351 21.3303 21.8136 21.858C21.5922 22.3858 21.478 22.9515 21.4778 23.5229V38.7138C21.4778 44.3468 19.2236 47.1621 14.7152 47.1597C10.2124 47.1597 7.96018 44.3444 7.95861 38.7138V23.545C7.95799 22.9739 7.84361 22.4085 7.62201 21.8811C7.40041 21.3537 7.07592 20.8747 6.66708 20.4713C6.25824 20.0679 5.77306 19.7482 5.23925 19.5303C4.70543 19.3124 4.13345 19.2007 3.55596 19.2014H0.000833502V38.8829C-0.111999 41.2752 0.223293 43.6674 0.989809 45.9392C1.73835 47.7966 2.94176 49.441 4.49189 50.7246C7.35082 53.086 10.993 54.3162 14.7152 54.1776C18.4497 54.321 22.1053 53.0908 24.9763 50.7246C26.5078 49.4391 27.6881 47.7935 28.4088 45.9392C29.1405 43.6588 29.4878 41.2748 29.4367 38.8829V19.1758H25.8804Z" fill="#19468D"/>
<path d="M76.8834 5.06173C76.8765 4.39721 77.0082 3.73843 77.2702 3.12648C77.5323 2.51454 77.919 1.96257 78.4063 1.50501C78.886 1.02803 79.4563 0.649525 80.0844 0.391243C80.7126 0.132962 81.3861 0 82.0663 0C82.7466 0 83.4201 0.132962 84.0482 0.391243C84.6764 0.649525 85.2467 1.02803 85.7264 1.50501C86.22 1.96531 86.6107 2.52265 86.8735 3.14122C87.1363 3.75978 87.2652 4.42588 87.2522 5.0967C87.2627 5.77333 87.1328 6.44491 86.8704 7.06991C86.608 7.69491 86.2188 8.26004 85.7268 8.73036C85.258 9.21582 84.6922 9.59958 84.0653 9.85726C83.4385 10.1149 82.7644 10.2409 82.0857 10.2272C81.4017 10.239 80.7224 10.1123 80.0898 9.85486C79.4571 9.59745 78.8844 9.21477 78.4068 8.73036C77.9123 8.25468 77.522 7.68358 77.26 7.05249C76.998 6.4214 76.8695 5.74379 76.8834 5.06173Z" fill="#19468D"/>
<path d="M240.21 19.2012C239.5 19.2 238.797 19.3372 238.14 19.6049C237.484 19.8726 236.887 20.2656 236.384 20.7614C235.882 21.2573 235.483 21.8462 235.21 22.4946C234.937 23.143 234.797 23.8381 234.796 24.5403V38.7136C234.796 44.3465 232.544 47.1618 228.039 47.1595C223.535 47.1595 221.284 44.3442 221.285 38.7136V34.4959C221.397 32.1029 221.06 29.71 220.291 27.4384C219.543 25.5807 218.34 23.9362 216.789 22.653C213.854 20.415 210.253 19.2012 206.547 19.2012C202.841 19.2012 199.24 20.415 196.305 22.653C194.775 23.9392 193.595 25.5846 192.875 27.4384C192.143 29.7192 191.795 32.1035 191.847 34.4959V54.1773H194.395C195.829 54.1793 197.205 53.6179 198.22 52.6166C199.236 51.6154 199.807 50.2562 199.809 48.8382V34.6649C199.809 29.0304 202.061 26.2151 206.566 26.219C211.059 26.219 213.312 29.02 213.323 34.6218V38.8826C213.271 41.2747 213.617 43.6589 214.347 45.9401C215.068 47.7937 216.248 49.4386 217.778 50.7244C220.713 52.9631 224.315 54.1773 228.022 54.1773C231.728 54.1773 235.33 52.9631 238.265 50.7244C239.815 49.4415 241.018 47.7974 241.766 45.9401C242.534 43.6683 242.87 41.2754 242.756 38.8826V19.2012H240.21Z" fill="#00A7E0"/>
<path d="M233.635 5.06173C233.628 4.39744 233.76 3.73888 234.021 3.127C234.283 2.51513 234.669 1.96302 235.155 1.50501C235.635 1.02801 236.206 0.649506 236.834 0.391231C237.463 0.132956 238.137 0 238.817 0C239.498 0 240.172 0.132956 240.8 0.391231C241.428 0.649506 241.999 1.02801 242.479 1.50501C242.971 1.96603 243.361 2.5236 243.623 3.14206C243.885 3.76053 244.014 4.42626 244.001 5.0967C244.011 5.773 243.881 6.44425 243.62 7.06914C243.358 7.69404 242.97 8.25937 242.479 8.73036C242.01 9.2154 241.443 9.59887 240.817 9.85651C240.19 10.1141 239.515 10.2404 238.837 10.2272C238.152 10.2392 237.473 10.1126 236.84 9.85521C236.206 9.59779 235.633 9.21499 235.155 8.73036C234.662 8.25424 234.272 7.683 234.01 7.05198C233.749 6.42096 233.621 5.74357 233.635 5.06173Z" fill="#00A7E0"/>
<path d="M148.851 35.9579C148.814 33.6165 149.269 31.293 150.189 29.1352C151.108 26.9773 152.472 25.0322 154.192 23.4237C157.712 20.1042 162.392 18.2552 167.255 18.2617C172.119 18.2683 176.793 20.1297 180.304 23.4586C182.029 25.1137 183.39 27.1023 184.302 29.3005C185.215 31.4988 185.66 33.8595 185.61 36.2353C185.666 38.6208 185.22 40.9918 184.3 43.1977C183.38 45.4036 182.006 47.3963 180.266 49.0493C178.523 50.7301 176.457 52.0496 174.19 52.9302C171.924 53.8108 169.502 54.2349 167.068 54.1775C164.656 54.2364 162.258 53.8016 160.023 52.9005C157.789 51.9993 155.768 50.6513 154.085 48.9409C152.362 47.2457 151.008 45.219 150.108 42.9859C149.207 40.7528 148.78 38.3608 148.851 35.9579ZM156.988 36.0919C156.825 39.0323 157.814 41.9219 159.749 44.1601C161.747 46.0783 164.421 47.1537 167.206 47.1596C169.991 47.1655 172.669 46.1013 174.676 44.1916C176.615 42.0117 177.618 39.1692 177.47 36.2691C177.616 33.3693 176.614 30.5274 174.676 28.3467C172.692 26.4226 170.024 25.3448 167.246 25.3448C164.467 25.3448 161.8 26.4226 159.816 28.3467C157.888 30.4645 156.873 33.2441 156.988 36.0919Z" fill="#00A7E0"/>
<path d="M64.5336 38.7132V34.4941C64.6473 32.1017 64.3116 29.7092 63.5435 27.4378C62.7949 25.5801 61.591 23.9356 60.0402 22.6524C57.1805 20.2908 53.5374 19.0611 49.8145 19.2006C46.0812 19.0582 42.4267 20.2879 39.5558 22.6524C38.0261 23.9395 36.8462 25.5846 36.1233 27.4378C35.3935 29.7186 35.0462 32.1023 35.0954 34.4941C35.0954 34.4941 38.8603 26.2172 49.8145 26.2172C54.3103 26.2172 56.5625 29.0182 56.5711 34.62V38.882C56.5205 41.274 56.8682 43.6579 57.6002 45.9383C58.3207 47.7919 59.4997 49.4372 61.0292 50.7237C63.9007 53.089 67.556 54.319 71.2903 54.1767C64.5336 51.0746 64.5336 44.3461 64.5336 38.7132Z" fill="#00A7E0"/>
</g>
<defs>
<clipPath id="clip0_65_2651">
<rect width="244" height="54.1776" fill="white"/>
</clipPath>
</defs>
</svg>
